<svg width="292" height="29" viewBox="0 0 292 29" fill="none" xmlns="http://www.w3.org/2000/svg">
<path d="M10.1686 28.9883C8.4511 28.9883 6.715 28.7004 4.96029 28.1306C3.21799 27.5432 1.56249 26.7679 0 25.7928L0.948655 24.2303C2.28173 25.0762 3.76363 25.7752 5.39433 26.3391C7.02502 26.8971 8.64952 27.1791 10.2554 27.1791C11.5203 27.1791 12.6239 26.9793 13.5726 26.574C14.5337 26.1687 15.2715 25.6048 15.7985 24.8764C16.3194 24.1363 16.5798 23.2787 16.5798 22.3036C16.5798 21.4343 16.307 20.6413 15.7551 19.9247C15.2219 19.208 14.4469 18.5384 13.43 17.9157C12.4255 17.2755 11.1359 16.6058 9.56096 15.9068C7.76286 15.0727 6.26857 14.2973 5.0719 13.569C3.89383 12.8288 2.92037 11.936 2.15153 10.8963C1.38268 9.85659 0.998259 8.65242 0.998259 7.28965C0.998259 5.8329 1.42608 4.55823 2.27553 3.46567C3.12498 2.36135 4.31546 1.5155 5.83455 0.928095C7.37224 0.328946 9.12074 0.0293719 11.0863 0.0293719C12.6798 0.0293719 14.2422 0.264331 15.7799 0.734251C17.3176 1.20417 18.6755 1.85031 19.8536 2.68442L18.8863 4.24691C17.7579 3.46567 16.524 2.87239 15.1785 2.47296C13.833 2.0559 12.4069 1.85031 10.894 1.85031C9.83378 1.85031 8.89133 2.02654 8.05428 2.37898C7.21723 2.73142 6.56619 3.22483 6.10117 3.85923C5.63614 4.49362 5.40052 5.222 5.40052 6.04436C5.40052 6.86672 5.71054 7.64209 6.32438 8.34697C6.95682 9.03423 7.75666 9.66275 8.73632 10.2208C9.72218 10.7671 10.9871 11.3838 12.5247 12.0711C14.4035 12.9052 15.9473 13.7276 17.1564 14.5499C18.3779 15.3664 19.3265 16.3121 19.9962 17.3753C20.6844 18.4385 21.0254 19.6838 21.0254 21.0995C21.0254 22.6972 20.5604 24.0952 19.6242 25.2935C18.7065 26.4918 17.423 27.4081 15.7737 28.0425C14.1244 28.6769 12.2581 29 10.1748 29L10.1686 28.9883ZM36.1729 28.9883C33.7548 28.9883 31.6777 28.5947 29.9354 27.7958C28.1931 26.9911 26.8538 25.8339 25.9175 24.3243C24.9999 22.8147 24.541 21.0172 24.541 18.9202V0.452301H29.5633V19.0964C29.5633 20.7588 29.8734 22.1803 30.4934 23.3492C31.1134 24.5181 32.0001 25.411 33.172 26.0219C34.3376 26.621 35.7265 26.9206 37.3324 26.9206C38.9383 26.9206 40.3334 26.5917 41.5549 25.9279C42.7887 25.2641 43.7436 24.3067 44.4194 23.0614C45.1077 21.8161 45.4487 20.3417 45.4487 18.6559V0.458172H47.3832V18.4033C47.3832 20.6002 46.9678 22.4916 46.1307 24.0776C45.2937 25.6518 44.035 26.8677 42.3609 27.7253C40.6992 28.5712 38.6407 28.9941 36.1853 28.9941L36.1729 28.9883ZM69.1217 28.5183L61.5696 16.2534H59.1205L59.0151 14.8084H61.3836C62.8779 14.8084 64.149 14.5441 65.1906 14.0095C66.2323 13.475 67.0136 12.7349 67.5406 11.7833C68.0614 10.8317 68.3218 9.75086 68.3218 8.52907C68.3218 7.30727 68.0614 6.20883 67.5406 5.27486C67.0198 4.32328 66.2323 3.58315 65.172 3.04861C64.118 2.51408 62.8159 2.24975 61.2782 2.24975H57.7378V28.5183H52.7155V0.452301H62.3695C64.7318 0.452301 66.7531 0.792992 68.4396 1.4685C70.1261 2.14401 71.4096 3.08973 72.2901 4.29391C73.1705 5.50395 73.6045 6.89022 73.6045 8.44683C73.6045 9.69212 73.3131 10.8376 72.7179 11.8773C72.1289 12.9052 71.267 13.7687 70.1447 14.4736C69.0163 15.1784 67.6646 15.6719 66.0897 15.9538L75.043 28.5125H69.1155L69.1217 28.5183ZM91.1702 28.9883C88.3304 28.9883 85.7883 28.395 83.5499 27.2143C81.3116 26.0336 79.5631 24.3595 78.2982 22.2038C77.0333 20.0304 76.4071 17.5222 76.4071 14.6733C76.4071 11.8244 77.0333 9.44541 78.2796 7.22504C79.5259 4.99879 81.3178 3.24833 83.6553 1.96192C86.0053 0.675514 88.7458 0.0293719 91.8894 0.0293719C93.5077 0.0293719 95.0826 0.270204 96.6017 0.751873C98.1394 1.22179 99.4911 1.89731 100.657 2.77841L99.7515 4.29978C98.778 3.53028 97.631 2.92526 96.3165 2.48471C95.002 2.04416 93.5883 1.82095 92.0754 1.82095C89.8371 1.82095 87.946 2.40247 86.3959 3.55965C84.8458 4.70509 83.6801 6.24408 82.8927 8.1825C82.1238 10.1209 81.7394 12.2649 81.7394 14.6204C81.7394 17.1932 82.1424 19.4254 82.9547 21.3109C83.7793 23.1965 84.9264 24.6474 86.3959 25.6577C87.8654 26.6563 89.5643 27.1614 91.4988 27.1614C92.7203 27.1614 93.7991 27.0028 94.7292 26.6915C95.6654 26.3684 96.5149 25.9514 97.2837 25.4462V15.9068H90.5315V14.1681H102.039V25.969C100.911 26.6034 99.8507 27.1379 98.8462 27.5667C97.848 27.9955 96.7133 28.3421 95.4484 28.6006C94.1836 28.859 92.7575 28.9883 91.164 28.9883H91.1702ZM120.38 28.9883C117.528 28.9883 115.004 28.3774 112.822 27.1556C110.639 25.9338 108.953 24.2362 107.756 22.0628C106.566 19.8777 105.964 17.3871 105.964 14.591C105.964 11.795 106.559 9.25157 107.756 7.04294C108.953 4.83432 110.639 3.10735 112.822 1.87381C115.004 0.628521 117.522 0 120.38 0C123.238 0 125.762 0.616772 127.957 1.85031C130.152 3.07211 131.857 4.78145 133.06 6.97833C134.281 9.17521 134.889 11.6775 134.889 14.4853C134.889 17.2931 134.288 19.8189 133.078 22.0158C131.888 24.2127 130.183 25.922 127.976 27.1438C125.781 28.3656 123.245 28.9765 120.38 28.9765V28.9883ZM120.591 27.1556C122.445 27.1556 124.045 26.6739 125.39 25.7106C126.735 24.7472 127.765 23.3962 128.478 21.6516C129.203 19.8953 129.569 17.8511 129.569 15.5074C129.569 13.5044 129.253 11.4485 128.62 9.34556C127.988 7.23678 126.965 5.46283 125.551 4.0237C124.15 2.56695 122.358 1.83857 120.175 1.83857C118.353 1.83857 116.765 2.32611 115.42 3.3012C114.087 4.26453 113.064 5.62731 112.351 7.39538C111.638 9.15171 111.278 11.2076 111.278 13.5572C111.278 15.5309 111.588 17.5692 112.202 19.6603C112.822 21.7515 113.826 23.5254 115.228 24.9822C116.629 26.4272 118.415 27.1497 120.579 27.1497L120.591 27.1556ZM162.716 0.452301H167.739V28.5183H162.716V15.2372H149.026V28.5183H144.003V0.452301H149.026V13.4397H162.716V0.452301ZM174.801 0.452301H193.389V2.26737H179.823V13.2283H189.291V15.0198H179.823V26.7033H194.071V28.5183H174.801V0.452301ZM216.163 28.5183L212.952 20.2301H200.7L197.444 28.5183H195.262L206.522 0.452301H210.143L221.508 28.5183H216.157H216.163ZM201.338 18.6324H212.313L206.857 4.58761L201.338 18.6324ZM225.489 0.452301H230.511V26.7033H243.216V28.5183H225.489V0.452301ZM249.924 2.28499H240.537V0.452301H264.315V2.28499H254.947V28.5183H249.924V2.28499ZM286.978 0.452301H292V28.5183H286.978V15.2372H273.287V28.5183H268.265V0.452301H273.287V13.4397H286.978V0.452301Z" fill="white"/>
</svg>
