<svg width="147" height="14" viewBox="0 0 147 14" fill="none" xmlns="http://www.w3.org/2000/svg">
<path d="M5.11913 13.9943C4.25449 13.9943 3.38049 13.8554 2.49713 13.5803C1.62002 13.2967 0.786597 12.9224 0 12.4517L0.477576 11.6974C1.14868 12.1057 1.8947 12.4432 2.71564 12.7154C3.53657 12.9848 4.35438 13.1209 5.16283 13.1209C5.7996 13.1209 6.3552 13.0245 6.83278 12.8288C7.3166 12.6332 7.68805 12.3609 7.95337 12.0093C8.21557 11.652 8.34667 11.238 8.34667 10.7673C8.34667 10.3476 8.20933 9.96476 7.93152 9.6188C7.66308 9.27284 7.2729 8.94956 6.76099 8.64898C6.25532 8.33988 5.60606 8.01661 4.81322 7.67916C3.90801 7.27648 3.15575 6.90217 2.55332 6.55054C1.96025 6.19324 1.47019 5.7622 1.08313 5.26028C0.696076 4.75836 0.502548 4.17703 0.502548 3.51914C0.502548 2.81588 0.717925 2.20053 1.14556 1.67308C1.57319 1.13996 2.17251 0.731619 2.93725 0.448046C3.71137 0.158801 4.59161 0.0141795 5.58109 0.0141795C6.3833 0.0141795 7.1699 0.127608 7.94401 0.354466C8.71812 0.581325 9.40171 0.893255 9.99478 1.29593L9.50784 2.05023C8.93974 1.67308 8.31858 1.38667 7.64123 1.19384C6.96388 0.992505 6.24596 0.893255 5.48433 0.893255C4.95057 0.893255 4.47611 0.978328 4.05472 1.14847C3.63333 1.31862 3.30558 1.55682 3.07148 1.86307C2.83737 2.16933 2.71876 2.52096 2.71876 2.91797C2.71876 3.31497 2.87483 3.68928 3.18385 4.02957C3.50223 4.36135 3.9049 4.66478 4.39808 4.93417C4.89439 5.19789 5.53115 5.49565 6.30527 5.82743C7.25106 6.2301 8.02828 6.6271 8.63696 7.0241C9.25188 7.41827 9.72946 7.87482 10.0666 8.38809C10.413 8.90136 10.5847 9.50253 10.5847 10.1859C10.5847 10.9573 10.3506 11.6322 9.87929 12.2107C9.41732 12.7891 8.77118 13.2315 7.94089 13.5378C7.11059 13.844 6.17104 14 5.12225 14L5.11913 13.9943ZM18.2103 13.9943C16.993 13.9943 15.9473 13.8043 15.0702 13.4187C14.1931 13.0302 13.5189 12.4715 13.0475 11.7428C12.5856 11.014 12.3546 10.1462 12.3546 9.13389V0.218352H14.8829V9.21896C14.8829 10.0215 15.039 10.7077 15.3511 11.272C15.6633 11.8363 16.1096 12.2674 16.6996 12.5623C17.2864 12.8515 17.9856 12.9962 18.7941 12.9962C19.6025 12.9962 20.3048 12.8373 20.9197 12.5169C21.5409 12.1965 22.0216 11.7343 22.3618 11.1331C22.7083 10.5319 22.88 9.82013 22.88 9.00628V0.221187H23.8539V8.88434C23.8539 9.94491 23.6447 10.858 23.2233 11.6237C22.802 12.3836 22.1683 12.9706 21.3255 13.3846C20.489 13.793 19.4527 13.9972 18.2166 13.9972L18.2103 13.9943ZM34.7976 13.7675L30.9957 7.84647H29.7627L29.7096 7.14888H30.902C31.6543 7.14888 32.2942 7.02127 32.8186 6.76322C33.343 6.50517 33.7363 6.14786 34.0016 5.68848C34.2638 5.22909 34.3949 4.70731 34.3949 4.11748C34.3949 3.52765 34.2638 2.99737 34.0016 2.54649C33.7394 2.0871 33.343 1.7298 32.8092 1.47174C32.2786 1.21369 31.6231 1.08609 30.849 1.08609H29.0666V13.7675H26.5383V0.218352H31.3983C32.5876 0.218352 33.6052 0.382824 34.4542 0.708933C35.3032 1.03504 35.9494 1.4916 36.3926 2.07292C36.8358 2.65708 37.0543 3.32631 37.0543 4.07778C37.0543 4.67896 36.9076 5.23192 36.608 5.73385C36.3114 6.2301 35.8776 6.64695 35.3126 6.98724C34.7445 7.32753 34.064 7.56573 33.2712 7.70184L37.7785 13.7646H34.7944L34.7976 13.7675ZM45.8973 13.9943C44.4677 13.9943 43.1879 13.7079 42.0611 13.1379C40.9343 12.568 40.054 11.7598 39.4173 10.7191C38.7805 9.66984 38.4652 8.45898 38.4652 7.08365C38.4652 5.70833 38.7805 4.55985 39.4079 3.48795C40.0353 2.41321 40.9374 1.56816 42.1142 0.947135C43.2972 0.32611 44.6768 0.0141795 46.2594 0.0141795C47.0741 0.0141795 47.8669 0.130443 48.6317 0.362973C49.4058 0.589832 50.0863 0.915942 50.6731 1.3413L50.2174 2.07575C49.7273 1.70427 49.1498 1.41219 48.4881 1.19951C47.8264 0.986835 47.1147 0.879078 46.353 0.879078C45.2262 0.879078 44.2742 1.15982 43.4938 1.71845C42.7135 2.27142 42.1266 3.01438 41.7302 3.95017C41.3432 4.88596 41.1496 5.921 41.1496 7.05813C41.1496 8.30018 41.3525 9.37776 41.7614 10.288C42.1766 11.1983 42.7541 11.8987 43.4938 12.3865C44.2336 12.8685 45.0889 13.1124 46.0627 13.1124C46.6777 13.1124 47.2208 13.0359 47.689 12.8856C48.1603 12.7296 48.588 12.5283 48.975 12.2844V7.67916H45.5758V6.83978H51.3692V12.5368C50.8011 12.843 50.2673 13.1011 49.7616 13.3081C49.2591 13.5151 48.6879 13.6824 48.0511 13.8072C47.4143 13.9319 46.6964 13.9943 45.8942 13.9943H45.8973ZM60.6023 13.9943C59.1665 13.9943 57.896 13.6994 56.7973 13.1096C55.6986 12.5197 54.8495 11.7002 54.2471 10.651C53.6478 9.59611 53.345 8.39376 53.345 7.04395C53.345 5.69415 53.6447 4.46628 54.2471 3.40004C54.8495 2.33381 55.6986 1.5001 56.7973 0.904599C57.896 0.303424 59.1633 0 60.6023 0C62.0413 0 63.3117 0.297752 64.4167 0.893255C65.5217 1.48309 66.38 2.30829 66.9856 3.36885C67.6005 4.42941 67.9064 5.63743 67.9064 6.99291C67.9064 8.34839 67.6037 9.56775 66.995 10.6283C66.3957 11.6889 65.5373 12.5141 64.426 13.1039C63.3211 13.6937 62.0444 13.9887 60.6023 13.9887V13.9943ZM60.7084 13.1096C61.6417 13.1096 62.4471 12.8771 63.1244 12.412C63.8018 11.9469 64.3199 11.2947 64.6789 10.4525C65.0441 9.60462 65.2283 8.61778 65.2283 7.48633C65.2283 6.51934 65.0691 5.52684 64.7507 4.51165C64.4323 3.49362 63.9173 2.63723 63.2056 1.94248C62.5001 1.23922 61.598 0.887585 60.4993 0.887585C59.5816 0.887585 58.7825 1.12295 58.1052 1.59368C57.4341 2.05874 56.919 2.71663 56.5601 3.57019C56.2011 4.41807 56.0201 5.41057 56.0201 6.54487C56.0201 7.49767 56.1761 8.48167 56.4852 9.49119C56.7973 10.5007 57.303 11.3571 58.0084 12.0604C58.7139 12.7579 59.6128 13.1067 60.7022 13.1067L60.7084 13.1096ZM81.9153 0.218352H84.4437V13.7675H81.9153V7.35588H75.0233V13.7675H72.4949V0.218352H75.0233V6.48815H81.9153V0.218352ZM87.999 0.218352H97.357V1.09459H90.5273V6.38607H95.2937V7.25096H90.5273V12.8912H97.7003V13.7675H87.999V0.218352ZM108.822 13.7675L107.205 9.76625H101.037L99.3984 13.7675H98.2997L103.968 0.218352H105.791L111.513 13.7675H108.819H108.822ZM101.359 8.99494H106.884L104.137 2.21471L101.359 8.99494ZM113.517 0.218352H116.045V12.8912H122.441V13.7675H113.517V0.218352ZM125.818 1.1031H121.092V0.218352H133.063V1.1031H128.346V13.7675H125.818V1.1031ZM144.472 0.218352H147V13.7675H144.472V7.35588H137.58V13.7675H135.051V0.218352H137.58V6.48815H144.472V0.218352Z" fill="#013B36"/>
</svg>
